# xmcd
#
# Track frame offsets:
#	150
#	13085
#	25425
#	39769
#	55859
#	71678
#	85372
#	99126
#	115498
#	130551
#	143339
#	159871
#	173499
#	187917
#	202073
#	217079
#
# Disc length: 3088 seconds
#
# Revision: 1
# Processed by: cddbd v1.5.2PL0 Copyright (c) Steve Scherf et al.
# Submitted via: audiograbber 1.83.01
#
DISCID=cd0c0e10
DTITLE=Marc Pircher - Lady Unbekannt (Österreich-Version)
DYEAR=2011
DGENRE=Volksmusik
TTITLE0=Lady Unbekannt
TTITLE1=Mit Dir In A Hütt'n Ohne Handy
TTITLE2=Schatzi, Schenk Mir Ein Foto
TTITLE3=Dankeschön
TTITLE4=Warum Willst Du Jetzt Schon Heim
TTITLE5=Nur Die Liebe Zählt
TTITLE6=Heut' Lass Ma's Uns Gut Geh'n
TTITLE7=Du Bist Wie Ein Diamant
TTITLE8=Ich Schick' Dir Tulpen Aus Amsterdam
TTITLE9=Auweh - Heut Wird's Lang
TTITLE10=Katharina
TTITLE11=Die Musi Aus Dem Zillertal
TTITLE12=Lass Mi Heute Nacht
TTITLE13=Gott Behüte Meine Heimat (Bonus-Titel)
TTITLE14=Wo Die Liebe Hinfällt (Bonus-Titel)
TTITLE15=Mi Amore
EXTD=
EXTT0=
EXTT1=
EXTT2=
EXTT3=
EXTT4=
EXTT5=
EXTT6=
EXTT7=
EXTT8=
EXTT9=
EXTT10=
EXTT11=
EXTT12=
EXTT13=
EXTT14=
EXTT15=
PLAYORDER=
